<?xml version="1.0" encoding="utf-8" standalone="no"?>
<!DOCTYPE svg PUBLIC "-//W3C//DTD SVG 1.1//EN"
  "http://www.w3.org/Graphics/SVG/1.1/DTD/svg11.dtd">
<svg xmlns:xlink="http://www.w3.org/1999/xlink" width="223.4975pt" height="231.505736pt" viewBox="0 0 223.4975 231.505736" xmlns="http://www.w3.org/2000/svg" version="1.1">
 <metadata>
  <rdf:RDF xmlns:dc="http://purl.org/dc/elements/1.1/" xmlns:cc="http://creativecommons.org/ns#" xmlns:rdf="http://www.w3.org/1999/02/22-rdf-syntax-ns#">
   <cc:Work>
    <dc:type rdf:resource="http://purl.org/dc/dcmitype/StillImage"/>
    <dc:date>2026-10-06T16:13:41.305419</dc:date>
    <dc:format>image/svg+xml</dc:format>
    <dc:creator>
     <cc:Agent>
      <dc:title>Matplotlib v3.9.4, https://matplotlib.org/</dc:title>
     </cc:Agent>
    </dc:creator>
   </cc:Work>
  </rdf:RDF>
 </metadata>
 <defs>
  <style type="text/css">*{stroke-linejoin: round; stroke-linecap: butt}</style>
 </defs>
 <g id="figure_1">
  <g id="patch_1">
   <path d="M 0 231.505736 
L 223.4975 231.505736 
L 223.4975 0 
L 0 0 
z
" style="fill: #ffffff"/>
  </g>
  <g id="axes_1">
   <g id="patch_2">
    <path d="M 48.8975 173.52 
L 216.2975 173.52 
L 216.2975 7.2 
L 48.8975 7.2 
z
" style="fill: #ffffff"/>
   </g>
   <g id="PolyCollection_1">
    <defs>
     <path id="m55014f6e2f" d="M 77.525269 -97.034854 
L 76.069731 -97.034854 
L 75.806316 -98.279667 
L 75.630666 -99.52448 
L 75.61018 -100.769293 
L 75.753052 -102.014106 
L 76.002662 -103.258919 
L 76.272139 -104.503733 
L 76.489434 -105.748546 
L 76.620013 -106.993359 
L 76.660686 -108.238172 
L 76.622794 -109.482985 
L 76.524178 -110.727798 
L 76.392929 -111.972611 
L 76.270617 -113.217424 
L 76.202441 -114.462238 
L 76.216136 -115.707051 
L 76.30592 -116.951864 
L 76.435846 -118.196677 
L 76.55929 -119.44149 
L 76.637296 -120.686303 
L 76.643112 -121.931116 
L 76.557202 -123.17593 
L 76.36804 -124.420743 
L 76.087393 -125.665556 
L 75.769254 -126.910369 
L 75.507452 -128.155182 
L 75.397859 -129.399995 
L 75.484471 -130.644808 
L 75.731159 -131.889622 
L 76.042642 -133.134435 
L 76.314514 -134.379248 
L 76.470008 -135.624061 
L 76.462815 -136.868874 
L 76.263934 -138.113687 
L 75.86568 -139.3585 
L 75.313126 -140.603313 
L 74.732664 -141.848127 
L 74.310118 -143.09294 
L 74.206275 -144.337753 
L 74.462122 -145.582566 
L 74.969619 -146.827379 
L 75.529083 -148.072192 
L 75.935182 -149.317005 
L 76.017763 -150.561819 
L 75.62816 -151.806632 
L 74.636768 -153.051445 
L 73.011739 -154.296258 
L 70.958986 -155.541071 
L 68.98842 -156.785884 
L 67.763782 -158.030697 
L 67.762104 -159.275511 
L 68.9787 -160.520324 
L 70.918664 -161.765137 
L 72.867965 -163.00995 
L 74.193732 -164.254763 
L 74.448148 -165.499576 
L 73.301166 -166.744389 
L 70.529441 -167.989202 
L 66.231357 -169.234016 
L 61.147015 -170.478829 
L 56.699966 -171.723642 
L 54.4775 -172.968455 
L 55.367676 -174.213268 
L 59.004285 -175.458081 
L 63.993318 -176.702894 
L 68.715617 -177.947708 
L 72.041183 -179.192521 
L 73.506365 -180.437334 
L 73.074949 -181.682147 
L 70.914991 -182.92696 
L 67.451681 -184.171773 
L 63.553716 -185.416586 
L 60.480569 -186.6614 
L 59.40273 -187.906213 
L 60.766 -189.151026 
L 64.026168 -190.395839 
L 68.00338 -191.640652 
L 71.563418 -192.885465 
L 74.104849 -194.130278 
L 75.600178 -195.375091 
L 76.337314 -196.619905 
L 76.644621 -197.864718 
L 76.753601 -199.109531 
L 76.7866 -200.354344 
L 76.795132 -201.599157 
L 76.796892 -202.84397 
L 76.796577 -204.088783 
L 76.793886 -205.333597 
L 76.784346 -206.57841 
L 76.756009 -207.823223 
L 76.684372 -209.068036 
L 76.530889 -210.312849 
L 76.254402 -211.557662 
L 75.841255 -212.802475 
L 75.342203 -214.047289 
L 74.883132 -215.292102 
L 74.62084 -216.536915 
L 74.658321 -217.781728 
L 74.980332 -219.026541 
L 75.463258 -220.271354 
L 78.131742 -220.271354 
L 78.131742 -220.271354 
L 78.614668 -219.026541 
L 78.936679 -217.781728 
L 78.97416 -216.536915 
L 78.711868 -215.292102 
L 78.252797 -214.047289 
L 77.753745 -212.802475 
L 77.340598 -211.557662 
L 77.064111 -210.312849 
L 76.910628 -209.068036 
L 76.838991 -207.823223 
L 76.810654 -206.57841 
L 76.801114 -205.333597 
L 76.798423 -204.088783 
L 76.798108 -202.84397 
L 76.799868 -201.599157 
L 76.8084 -200.354344 
L 76.841399 -199.109531 
L 76.950379 -197.864718 
L 77.257686 -196.619905 
L 77.994822 -195.375091 
L 79.490151 -194.130278 
L 82.031582 -192.885465 
L 85.59162 -191.640652 
L 89.568832 -190.395839 
L 92.829 -189.151026 
L 94.19227 -187.906213 
L 93.114431 -186.6614 
L 90.041284 -185.416586 
L 86.143319 -184.171773 
L 82.680009 -182.92696 
L 80.520051 -181.682147 
L 80.088635 -180.437334 
L 81.553817 -179.192521 
L 84.879383 -177.947708 
L 89.601682 -176.702894 
L 94.590715 -175.458081 
L 98.227324 -174.213268 
L 99.1175 -172.968455 
L 96.895034 -171.723642 
L 92.447985 -170.478829 
L 87.363643 -169.234016 
L 83.065559 -167.989202 
L 80.293834 -166.744389 
L 79.146852 -165.499576 
L 79.401268 -164.254763 
L 80.727035 -163.00995 
L 82.676336 -161.765137 
L 84.6163 -160.520324 
L 85.832896 -159.275511 
L 85.831218 -158.030697 
L 84.60658 -156.785884 
L 82.636014 -155.541071 
L 80.583261 -154.296258 
L 78.958232 -153.051445 
L 77.96684 -151.806632 
L 77.577237 -150.561819 
L 77.659818 -149.317005 
L 78.065917 -148.072192 
L 78.625381 -146.827379 
L 79.132878 -145.582566 
L 79.388725 -144.337753 
L 79.284882 -143.09294 
L 78.862336 -141.848127 
L 78.281874 -140.603313 
L 77.72932 -139.3585 
L 77.331066 -138.113687 
L 77.132185 -136.868874 
L 77.124992 -135.624061 
L 77.280486 -134.379248 
L 77.552358 -133.134435 
L 77.863841 -131.889622 
L 78.110529 -130.644808 
L 78.197141 -129.399995 
L 78.087548 -128.155182 
L 77.825746 -126.910369 
L 77.507607 -125.665556 
L 77.22696 -124.420743 
L 77.037798 -123.17593 
L 76.951888 -121.931116 
L 76.957704 -120.686303 
L 77.03571 -119.44149 
L 77.159154 -118.196677 
L 77.28908 -116.951864 
L 77.378864 -115.707051 
L 77.392559 -114.462238 
L 77.324383 -113.217424 
L 77.202071 -111.972611 
L 77.070822 -110.727798 
L 76.972206 -109.482985 
L 76.934314 -108.238172 
L 76.974987 -106.993359 
L 77.105566 -105.748546 
L 77.322861 -104.503733 
L 77.592338 -103.258919 
L 77.841948 -102.014106 
L 77.98482 -100.769293 
L 77.964334 -99.52448 
L 77.788684 -98.279667 
L 77.525269 -97.034854 
z
" style="stroke: #7a7a7a"/>
    </defs>
    <g clip-path="url(#p343e719359)">
     <use xlink:href="#m55014f6e2f" x="0" y="231.505736" style="fill: #eecbb8; stroke: #7a7a7a"/>
    </g>
   </g>
   <g id="PolyCollection_2">
    <defs>
     <path id="m041e116582" d="M 133.541542 -111.084094 
L 131.653458 -111.084094 
L 131.386388 -112.192452 
L 131.170386 -113.300811 
L 131.052784 -114.409169 
L 131.061256 -115.517528 
L 131.192693 -116.625886 
L 131.413635 -117.734245 
L 131.671782 -118.842603 
L 131.912419 -119.950962 
L 132.09217 -121.059321 
L 132.185841 -122.167679 
L 132.187005 -123.276038 
L 132.105782 -124.384396 
L 131.966399 -125.492755 
L 131.804271 -126.601113 
L 131.660512 -127.709472 
L 131.572848 -128.81783 
L 131.565023 -129.926189 
L 131.639184 -131.034547 
L 131.775164 -132.142906 
L 131.937038 -133.251264 
L 132.08354 -134.359623 
L 132.177685 -135.467981 
L 132.192917 -136.57634 
L 132.116337 -137.684698 
L 131.951123 -138.793057 
L 131.718893 -139.901415 
L 131.459859 -141.009774 
L 131.227155 -142.118133 
L 131.073709 -143.226491 
L 131.034633 -144.33485 
L 131.111728 -145.443208 
L 131.266173 -146.551567 
L 131.4208 -147.659925 
L 131.468706 -148.768284 
L 131.284835 -149.876642 
L 130.742243 -150.985001 
L 129.739795 -152.093359 
L 128.245332 -153.201718 
L 126.344961 -154.310076 
L 124.272124 -155.418435 
L 122.384836 -156.526793 
L 121.077653 -157.635152 
L 120.651784 -158.74351 
L 121.198541 -159.851869 
L 122.552211 -160.960227 
L 124.332968 -162.068586 
L 126.052564 -163.176944 
L 127.229901 -164.285303 
L 127.477209 -165.393662 
L 126.554417 -166.50202 
L 124.414672 -167.610379 
L 121.254041 -168.718737 
L 117.541468 -169.827096 
L 113.977226 -170.935454 
L 111.34415 -172.043813 
L 110.2775 -173.152171 
L 111.045335 -174.26053 
L 113.447638 -175.368888 
L 116.887287 -176.477247 
L 120.573962 -177.585605 
L 123.75795 -178.693964 
L 125.89666 -179.802322 
L 126.718651 -180.910681 
L 126.214597 -182.019039 
L 124.6054 -183.127398 
L 122.310011 -184.235756 
L 119.894544 -185.344115 
L 117.97211 -186.452474 
L 117.053627 -187.560832 
L 117.398652 -188.669191 
L 118.938466 -189.777549 
L 121.3164 -190.885908 
L 124.028579 -191.994266 
L 126.595982 -193.102625 
L 128.691312 -194.210983 
L 130.180947 -195.319342 
L 131.092149 -196.4277 
L 131.5456 -197.536059 
L 131.69218 -198.644417 
L 131.672742 -199.752776 
L 131.599636 -200.861134 
L 131.55034 -201.969493 
L 131.565855 -203.077851 
L 131.652186 -204.18621 
L 131.785984 -205.294568 
L 131.924103 -206.402927 
L 132.014475 -207.511285 
L 132.005654 -208.619644 
L 131.854953 -209.728003 
L 131.537653 -210.836361 
L 131.058901 -211.94472 
L 130.465148 -213.053078 
L 129.846871 -214.161437 
L 129.324181 -215.269795 
L 129.014562 -216.378154 
L 128.993699 -217.486512 
L 129.26773 -218.594871 
L 129.771616 -219.703229 
L 130.394746 -220.811588 
L 134.800254 -220.811588 
L 134.800254 -220.811588 
L 135.423384 -219.703229 
L 135.92727 -218.594871 
L 136.201301 -217.486512 
L 136.180438 -216.378154 
L 135.870819 -215.269795 
L 135.348129 -214.161437 
L 134.729852 -213.053078 
L 134.136099 -211.94472 
L 133.657347 -210.836361 
L 133.340047 -209.728003 
L 133.189346 -208.619644 
L 133.180525 -207.511285 
L 133.270897 -206.402927 
L 133.409016 -205.294568 
L 133.542814 -204.18621 
L 133.629145 -203.077851 
L 133.64466 -201.969493 
L 133.595364 -200.861134 
L 133.522258 -199.752776 
L 133.50282 -198.644417 
L 133.6494 -197.536059 
L 134.102851 -196.4277 
L 135.014053 -195.319342 
L 136.503688 -194.210983 
L 138.599018 -193.102625 
L 141.166421 -191.994266 
L 143.8786 -190.885908 
L 146.256534 -189.777549 
L 147.796348 -188.669191 
L 148.141373 -187.560832 
L 147.22289 -186.452474 
L 145.300456 -185.344115 
L 142.884989 -184.235756 
L 140.5896 -183.127398 
L 138.980403 -182.019039 
L 138.476349 -180.910681 
L 139.29834 -179.802322 
L 141.43705 -178.693964 
L 144.621038 -177.585605 
L 148.307713 -176.477247 
L 151.747362 -175.368888 
L 154.149665 -174.26053 
L 154.9175 -173.152171 
L 153.85085 -172.043813 
L 151.217774 -170.935454 
L 147.653532 -169.827096 
L 143.940959 -168.718737 
L 140.780328 -167.610379 
L 138.640583 -166.50202 
L 137.717791 -165.393662 
L 137.965099 -164.285303 
L 139.142436 -163.176944 
L 140.862032 -162.068586 
L 142.642789 -160.960227 
L 143.996459 -159.851869 
L 144.543216 -158.74351 
L 144.117347 -157.635152 
L 142.810164 -156.526793 
L 140.922876 -155.418435 
L 138.850039 -154.310076 
L 136.949668 -153.201718 
L 135.455205 -152.093359 
L 134.452757 -150.985001 
L 133.910165 -149.876642 
L 133.726294 -148.768284 
L 133.7742 -147.659925 
L 133.928827 -146.551567 
L 134.083272 -145.443208 
L 134.160367 -144.33485 
L 134.121291 -143.226491 
L 133.967845 -142.118133 
L 133.735141 -141.009774 
L 133.476107 -139.901415 
L 133.243877 -138.793057 
L 133.078663 -137.684698 
L 133.002083 -136.57634 
L 133.017315 -135.467981 
L 133.11146 -134.359623 
L 133.257962 -133.251264 
L 133.419836 -132.142906 
L 133.555816 -131.034547 
L 133.629977 -129.926189 
L 133.622152 -128.81783 
L 133.534488 -127.709472 
L 133.390729 -126.601113 
L 133.228601 -125.492755 
L 133.089218 -124.384396 
L 133.007995 -123.276038 
L 133.009159 -122.167679 
L 133.10283 -121.059321 
L 133.282581 -119.950962 
L 133.523218 -118.842603 
L 133.781365 -117.734245 
L 134.002307 -116.625886 
L 134.133744 -115.517528 
L 134.142216 -114.409169 
L 134.024614 -113.300811 
L 133.808612 -112.192452 
L 133.541542 -111.084094 
z
" style="stroke: #7a7a7a"/>
    </defs>
    <g clip-path="url(#p343e719359)">
     <use xlink:href="#m041e116582" x="0" y="231.505736" style="fill: #cae6c0; stroke: #7a7a7a"/>
    </g>
   </g>
   <g id="PolyCollection_3">
    <defs>
     <path id="m701abd6f9d" d="M 189.236829 -124.179583 
L 187.558171 -124.179583 
L 187.402955 -125.170755 
L 187.259621 -126.161927 
L 187.140463 -127.153098 
L 187.056652 -128.14427 
L 187.016509 -129.135441 
L 187.024146 -130.126613 
L 187.078774 -131.117785 
L 187.174832 -132.108956 
L 187.302917 -133.100128 
L 187.451296 -134.091299 
L 187.607644 -135.082471 
L 187.760671 -136.073643 
L 187.901311 -137.064814 
L 188.023317 -138.055986 
L 188.123235 -139.047157 
L 188.199856 -140.038329 
L 188.253332 -141.029501 
L 188.284123 -142.020672 
L 188.291991 -143.011844 
L 188.275147 -144.003015 
L 188.22971 -144.994187 
L 188.149577 -145.985359 
L 188.02681 -146.97653 
L 187.852647 -147.967702 
L 187.619122 -148.958873 
L 187.32121 -149.950045 
L 186.959189 -150.941217 
L 186.540762 -151.932388 
L 186.082337 -152.92356 
L 185.60889 -153.914731 
L 185.152025 -154.905903 
L 184.746185 -155.897075 
L 184.423473 -156.888246 
L 184.207939 -157.879418 
L 184.110506 -158.870589 
L 184.125717 -159.861761 
L 184.231175 -160.852933 
L 184.390077 -161.844104 
L 184.556564 -162.835276 
L 184.683048 -163.826447 
L 184.728252 -164.817619 
L 184.664518 -165.808791 
L 184.483036 -166.799962 
L 184.195948 -167.791134 
L 183.834788 -168.782305 
L 183.445309 -169.773477 
L 183.079427 -170.764649 
L 182.785558 -171.75582 
L 182.599047 -172.746992 
L 182.534515 -173.738163 
L 182.581675 -174.729335 
L 182.705632 -175.720507 
L 182.851867 -176.711678 
L 182.955229 -177.70285 
L 182.95151 -178.694021 
L 182.789637 -179.685193 
L 182.442324 -180.676365 
L 181.913165 -181.667536 
L 181.238623 -182.658708 
L 180.484165 -183.649879 
L 179.734762 -184.641051 
L 179.081096 -185.632223 
L 178.603732 -186.623394 
L 178.35816 -187.614566 
L 178.363649 -188.605737 
L 178.598267 -189.596909 
L 179.001295 -190.588081 
L 179.482825 -191.579252 
L 179.938897 -192.570424 
L 180.269481 -193.561595 
L 180.396065 -194.552767 
L 180.275687 -195.543939 
L 179.908842 -196.53511 
L 179.339727 -197.526282 
L 178.648513 -198.517453 
L 177.936721 -199.508625 
L 177.307992 -200.499797 
L 176.847547 -201.490968 
L 176.604053 -202.48214 
L 176.577455 -203.473311 
L 176.715398 -204.464483 
L 176.919463 -205.455655 
L 177.06067 -206.446826 
L 177.002001 -207.437998 
L 176.624349 -208.429169 
L 175.851456 -209.420341 
L 174.669346 -210.411513 
L 173.136307 -211.402684 
L 171.380881 -212.393856 
L 169.587254 -213.385027 
L 167.9698 -214.376199 
L 166.740854 -215.367371 
L 166.0775 -216.358542 
L 166.093722 -217.349714 
L 166.823417 -218.340885 
L 168.217462 -219.332057 
L 170.15498 -220.323229 
L 172.465765 -221.3144 
L 174.958654 -222.305572 
L 201.836346 -222.305572 
L 201.836346 -222.305572 
L 204.329235 -221.3144 
L 206.64002 -220.323229 
L 208.577538 -219.332057 
L 209.971583 -218.340885 
L 210.701278 -217.349714 
L 210.7175 -216.358542 
L 210.054146 -215.367371 
L 208.8252 -214.376199 
L 207.207746 -213.385027 
L 205.414119 -212.393856 
L 203.658693 -211.402684 
L 202.125654 -210.411513 
L 200.943544 -209.420341 
L 200.170651 -208.429169 
L 199.792999 -207.437998 
L 199.73433 -206.446826 
L 199.875537 -205.455655 
L 200.079602 -204.464483 
L 200.217545 -203.473311 
L 200.190947 -202.48214 
L 199.947453 -201.490968 
L 199.487008 -200.499797 
L 198.858279 -199.508625 
L 198.146487 -198.517453 
L 197.455273 -197.526282 
L 196.886158 -196.53511 
L 196.519313 -195.543939 
L 196.398935 -194.552767 
L 196.525519 -193.561595 
L 196.856103 -192.570424 
L 197.312175 -191.579252 
L 197.793705 -190.588081 
L 198.196733 -189.596909 
L 198.431351 -188.605737 
L 198.43684 -187.614566 
L 198.191268 -186.623394 
L 197.713904 -185.632223 
L 197.060238 -184.641051 
L 196.310835 -183.649879 
L 195.556377 -182.658708 
L 194.881835 -181.667536 
L 194.352676 -180.676365 
L 194.005363 -179.685193 
L 193.84349 -178.694021 
L 193.839771 -177.70285 
L 193.943133 -176.711678 
L 194.089368 -175.720507 
L 194.213325 -174.729335 
L 194.260485 -173.738163 
L 194.195953 -172.746992 
L 194.009442 -171.75582 
L 193.715573 -170.764649 
L 193.349691 -169.773477 
L 192.960212 -168.782305 
L 192.599052 -167.791134 
L 192.311964 -166.799962 
L 192.130482 -165.808791 
L 192.066748 -164.817619 
L 192.111952 -163.826447 
L 192.238436 -162.835276 
L 192.404923 -161.844104 
L 192.563825 -160.852933 
L 192.669283 -159.861761 
L 192.684494 -158.870589 
L 192.587061 -157.879418 
L 192.371527 -156.888246 
L 192.048815 -155.897075 
L 191.642975 -154.905903 
L 191.18611 -153.914731 
L 190.712663 -152.92356 
L 190.254238 -151.932388 
L 189.835811 -150.941217 
L 189.47379 -149.950045 
L 189.175878 -148.958873 
L 188.942353 -147.967702 
L 188.76819 -146.97653 
L 188.645423 -145.985359 
L 188.56529 -144.994187 
L 188.519853 -144.003015 
L 188.503009 -143.011844 
L 188.510877 -142.020672 
L 188.541668 -141.029501 
L 188.595144 -140.038329 
L 188.671765 -139.047157 
L 188.771683 -138.055986 
L 188.893689 -137.064814 
L 189.034329 -136.073643 
L 189.187356 -135.082471 
L 189.343704 -134.091299 
L 189.492083 -133.100128 
L 189.620168 -132.108956 
L 189.716226 -131.117785 
L 189.770854 -130.126613 
L 189.778491 -129.135441 
L 189.738348 -128.14427 
L 189.654537 -127.153098 
L 189.535379 -126.161927 
L 189.392045 -125.170755 
L 189.236829 -124.179583 
z
" style="stroke: #7a7a7a"/>
    </defs>
    <g clip-path="url(#p343e719359)">
     <use xlink:href="#m701abd6f9d" x="0" y="231.505736" style="fill: #e2b5dc; stroke: #7a7a7a"/>
    </g>
   </g>
   <g id="matplotlib.axis_1">
    <g id="xtick_1">
     <g id="line2d_1">
      <defs>
       <path id="meee5b6b6b3" d="M 0 0 
L 0 3.5 
" style="stroke: #000000; stroke-width: 0.8"/>
      </defs>
      <g>
       <use xlink:href="#meee5b6b6b3" x="76.7975" y="173.52" style="stroke: #000000; stroke-width: 0.8"/>
      </g>
     </g>
     <g id="text_1">
      <!-- Llama -->
      <g transform="translate(67.630108 214.277484) rotate(-50) scale(0.12 -0.12)">
       <defs>
        <path id="DejaVuSans-4c" d="M 628 4666 
L 1259 4666 
L 1259 531 
L 3531 531 
L 3531 0 
L 628 0 
L 628 4666 
z
" transform="scale(0.015625)"/>
        <path id="DejaVuSans-6c" d="M 603 4863 
L 1178 4863 
L 1178 0 
L 603 0 
L 603 4863 
z
" transform="scale(0.015625)"/>
        <path id="DejaVuSans-61" d="M 2194 1759 
Q 1497 1759 1228 1600 
Q 959 1441 959 1056 
Q 959 750 1161 570 
Q 1363 391 1709 391 
Q 2188 391 2477 730 
Q 2766 1069 2766 1631 
L 2766 1759 
L 2194 1759 
z
M 3341 1997 
L 3341 0 
L 2766 0 
L 2766 531 
Q 2569 213 2275 61 
Q 1981 -91 1556 -91 
Q 1019 -91 701 211 
Q 384 513 384 1019 
Q 384 1609 779 1909 
Q 1175 2209 1959 2209 
L 2766 2209 
L 2766 2266 
Q 2766 2663 2505 2880 
Q 2244 3097 1772 3097 
Q 1472 3097 1187 3025 
Q 903 2953 641 2809 
L 641 3341 
Q 956 3463 1253 3523 
Q 1550 3584 1831 3584 
Q 2591 3584 2966 3190 
Q 3341 2797 3341 1997 
z
" transform="scale(0.015625)"/>
        <path id="DejaVuSans-6d" d="M 3328 2828 
Q 3544 3216 3844 3400 
Q 4144 3584 4550 3584 
Q 5097 3584 5394 3201 
Q 5691 2819 5691 2113 
L 5691 0 
L 5113 0 
L 5113 2094 
Q 5113 2597 4934 2840 
Q 4756 3084 4391 3084 
Q 3944 3084 3684 2787 
Q 3425 2491 3425 1978 
L 3425 0 
L 2847 0 
L 2847 2094 
Q 2847 2600 2669 2842 
Q 2491 3084 2119 3084 
Q 1678 3084 1418 2786 
Q 1159 2488 1159 1978 
L 1159 0 
L 581 0 
L 581 3500 
L 1159 3500 
L 1159 2956 
Q 1356 3278 1631 3431 
Q 1906 3584 2284 3584 
Q 2666 3584 2933 3390 
Q 3200 3197 3328 2828 
z
" transform="scale(0.015625)"/>
       </defs>
       <use xlink:href="#DejaVuSans-4c"/>
       <use xlink:href="#DejaVuSans-6c" x="55.712891"/>
       <use xlink:href="#DejaVuSans-61" x="83.496094"/>
       <use xlink:href="#DejaVuSans-6d" x="144.775391"/>
       <use xlink:href="#DejaVuSans-61" x="242.1875"/>
      </g>
     </g>
    </g>
    <g id="xtick_2">
     <g id="line2d_2">
      <g>
       <use xlink:href="#meee5b6b6b3" x="132.5975" y="173.52" style="stroke: #000000; stroke-width: 0.8"/>
      </g>
     </g>
     <g id="text_2">
      <!-- Qwen -->
      <g transform="translate(124.126729 212.617082) rotate(-50) scale(0.12 -0.12)">
       <defs>
        <path id="DejaVuSans-51" d="M 2522 4238 
Q 1834 4238 1429 3725 
Q 1025 3213 1025 2328 
Q 1025 1447 1429 934 
Q 1834 422 2522 422 
Q 3209 422 3611 934 
Q 4013 1447 4013 2328 
Q 4013 3213 3611 3725 
Q 3209 4238 2522 4238 
z
M 3406 84 
L 4238 -825 
L 3475 -825 
L 2784 -78 
Q 2681 -84 2626 -87 
Q 2572 -91 2522 -91 
Q 1538 -91 948 567 
Q 359 1225 359 2328 
Q 359 3434 948 4092 
Q 1538 4750 2522 4750 
Q 3503 4750 4090 4092 
Q 4678 3434 4678 2328 
Q 4678 1516 4351 937 
Q 4025 359 3406 84 
z
" transform="scale(0.015625)"/>
        <path id="DejaVuSans-77" d="M 269 3500 
L 844 3500 
L 1563 769 
L 2278 3500 
L 2956 3500 
L 3675 769 
L 4391 3500 
L 4966 3500 
L 4050 0 
L 3372 0 
L 2619 2869 
L 1863 0 
L 1184 0 
L 269 3500 
z
" transform="scale(0.015625)"/>
        <path id="DejaVuSans-65" d="M 3597 1894 
L 3597 1613 
L 953 1613 
Q 991 1019 1311 708 
Q 1631 397 2203 397 
Q 2534 397 2845 478 
Q 3156 559 3463 722 
L 3463 178 
Q 3153 47 2828 -22 
Q 2503 -91 2169 -91 
Q 1331 -91 842 396 
Q 353 884 353 1716 
Q 353 2575 817 3079 
Q 1281 3584 2069 3584 
Q 2775 3584 3186 3129 
Q 3597 2675 3597 1894 
z
M 3022 2063 
Q 3016 2534 2758 2815 
Q 2500 3097 2075 3097 
Q 1594 3097 1305 2825 
Q 1016 2553 972 2059 
L 3022 2063 
z
" transform="scale(0.015625)"/>
        <path id="DejaVuSans-6e" d="M 3513 2113 
L 3513 0 
L 2938 0 
L 2938 2094 
Q 2938 2591 2744 2837 
Q 2550 3084 2163 3084 
Q 1697 3084 1428 2787 
Q 1159 2491 1159 1978 
L 1159 0 
L 581 0 
L 581 3500 
L 1159 3500 
L 1159 2956 
Q 1366 3272 1645 3428 
Q 1925 3584 2291 3584 
Q 2894 3584 3203 3211 
Q 3513 2838 3513 2113 
z
" transform="scale(0.015625)"/>
       </defs>
       <use xlink:href="#DejaVuSans-51"/>
       <use xlink:href="#DejaVuSans-77" x="78.710938"/>
       <use xlink:href="#DejaVuSans-65" x="160.498047"/>
       <use xlink:href="#DejaVuSans-6e" x="222.021484"/>
      </g>
     </g>
    </g>
    <g id="xtick_3">
     <g id="line2d_3">
      <g>
       <use xlink:href="#meee5b6b6b3" x="188.3975" y="173.52" style="stroke: #000000; stroke-width: 0.8"/>
      </g>
     </g>
     <g id="text_3">
      <!-- Gemma -->
      <g transform="translate(175.69578 222.701579) rotate(-50) scale(0.12 -0.12)">
       <defs>
        <path id="DejaVuSans-47" d="M 3809 666 
L 3809 1919 
L 2778 1919 
L 2778 2438 
L 4434 2438 
L 4434 434 
Q 4069 175 3628 42 
Q 3188 -91 2688 -91 
Q 1594 -91 976 548 
Q 359 1188 359 2328 
Q 359 3472 976 4111 
Q 1594 4750 2688 4750 
Q 3144 4750 3555 4637 
Q 3966 4525 4313 4306 
L 4313 3634 
Q 3963 3931 3569 4081 
Q 3175 4231 2741 4231 
Q 1884 4231 1454 3753 
Q 1025 3275 1025 2328 
Q 1025 1384 1454 906 
Q 1884 428 2741 428 
Q 3075 428 3337 486 
Q 3600 544 3809 666 
z
" transform="scale(0.015625)"/>
       </defs>
       <use xlink:href="#DejaVuSans-47"/>
       <use xlink:href="#DejaVuSans-65" x="77.490234"/>
       <use xlink:href="#DejaVuSans-6d" x="139.013672"/>
       <use xlink:href="#DejaVuSans-6d" x="236.425781"/>
       <use xlink:href="#DejaVuSans-61" x="333.837891"/>
      </g>
     </g>
    </g>
   </g>
   <g id="matplotlib.axis_2">
    <g id="ytick_1">
     <g id="line2d_4">
      <defs>
       <path id="md3133f829d" d="M 0 0 
L -3.5 0 
" style="stroke: #000000; stroke-width: 0.8"/>
      </defs>
      <g>
       <use xlink:href="#md3133f829d" x="48.8975" y="160.389474" style="stroke: #000000; stroke-width: 0.8"/>
      </g>
     </g>
     <g id="text_4">
      <!-- 0.0 -->
      <g transform="translate(22.81375 164.948536) scale(0.12 -0.12)">
       <defs>
        <path id="DejaVuSans-30" d="M 2034 4250 
Q 1547 4250 1301 3770 
Q 1056 3291 1056 2328 
Q 1056 1369 1301 889 
Q 1547 409 2034 409 
Q 2525 409 2770 889 
Q 3016 1369 3016 2328 
Q 3016 3291 2770 3770 
Q 2525 4250 2034 4250 
z
M 2034 4750 
Q 2819 4750 3233 4129 
Q 3647 3509 3647 2328 
Q 3647 1150 3233 529 
Q 2819 -91 2034 -91 
Q 1250 -91 836 529 
Q 422 1150 422 2328 
Q 422 3509 836 4129 
Q 1250 4750 2034 4750 
z
" transform="scale(0.015625)"/>
        <path id="DejaVuSans-2e" d="M 684 794 
L 1344 794 
L 1344 0 
L 684 0 
L 684 794 
z
" transform="scale(0.015625)"/>
       </defs>
       <use xlink:href="#DejaVuSans-30"/>
       <use xlink:href="#DejaVuSans-2e" x="63.623047"/>
       <use xlink:href="#DejaVuSans-30" x="95.410156"/>
      </g>
     </g>
    </g>
    <g id="ytick_2">
     <g id="line2d_5">
      <g>
       <use xlink:href="#md3133f829d" x="48.8975" y="131.210526" style="stroke: #000000; stroke-width: 0.8"/>
      </g>
     </g>
     <g id="text_5">
      <!-- 0.2 -->
      <g transform="translate(22.81375 135.769589) scale(0.12 -0.12)">
       <defs>
        <path id="DejaVuSans-32" d="M 1228 531 
L 3431 531 
L 3431 0 
L 469 0 
L 469 531 
Q 828 903 1448 1529 
Q 2069 2156 2228 2338 
Q 2531 2678 2651 2914 
Q 2772 3150 2772 3378 
Q 2772 3750 2511 3984 
Q 2250 4219 1831 4219 
Q 1534 4219 1204 4116 
Q 875 4013 500 3803 
L 500 4441 
Q 881 4594 1212 4672 
Q 1544 4750 1819 4750 
Q 2544 4750 2975 4387 
Q 3406 4025 3406 3419 
Q 3406 3131 3298 2873 
Q 3191 2616 2906 2266 
Q 2828 2175 2409 1742 
Q 1991 1309 1228 531 
z
" transform="scale(0.015625)"/>
       </defs>
       <use xlink:href="#DejaVuSans-30"/>
       <use xlink:href="#DejaVuSans-2e" x="63.623047"/>
       <use xlink:href="#DejaVuSans-32" x="95.410156"/>
      </g>
     </g>
    </g>
    <g id="ytick_3">
     <g id="line2d_6">
      <g>
       <use xlink:href="#md3133f829d" x="48.8975" y="102.031579" style="stroke: #000000; stroke-width: 0.8"/>
      </g>
     </g>
     <g id="text_6">
      <!-- 0.4 -->
      <g transform="translate(22.81375 106.590641) scale(0.12 -0.12)">
       <defs>
        <path id="DejaVuSans-34" d="M 2419 4116 
L 825 1625 
L 2419 1625 
L 2419 4116 
z
M 2253 4666 
L 3047 4666 
L 3047 1625 
L 3713 1625 
L 3713 1100 
L 3047 1100 
L 3047 0 
L 2419 0 
L 2419 1100 
L 313 1100 
L 313 1709 
L 2253 4666 
z
" transform="scale(0.015625)"/>
       </defs>
       <use xlink:href="#DejaVuSans-30"/>
       <use xlink:href="#DejaVuSans-2e" x="63.623047"/>
       <use xlink:href="#DejaVuSans-34" x="95.410156"/>
      </g>
     </g>
    </g>
    <g id="ytick_4">
     <g id="line2d_7">
      <g>
       <use xlink:href="#md3133f829d" x="48.8975" y="72.852632" style="stroke: #000000; stroke-width: 0.8"/>
      </g>
     </g>
     <g id="text_7">
      <!-- 0.6 -->
      <g transform="translate(22.81375 77.411694) scale(0.12 -0.12)">
       <defs>
        <path id="DejaVuSans-36" d="M 2113 2584 
Q 1688 2584 1439 2293 
Q 1191 2003 1191 1497 
Q 1191 994 1439 701 
Q 1688 409 2113 409 
Q 2538 409 2786 701 
Q 3034 994 3034 1497 
Q 3034 2003 2786 2293 
Q 2538 2584 2113 2584 
z
M 3366 4563 
L 3366 3988 
Q 3128 4100 2886 4159 
Q 2644 4219 2406 4219 
Q 1781 4219 1451 3797 
Q 1122 3375 1075 2522 
Q 1259 2794 1537 2939 
Q 1816 3084 2150 3084 
Q 2853 3084 3261 2657 
Q 3669 2231 3669 1497 
Q 3669 778 3244 343 
Q 2819 -91 2113 -91 
Q 1303 -91 875 529 
Q 447 1150 447 2328 
Q 447 3434 972 4092 
Q 1497 4750 2381 4750 
Q 2619 4750 2861 4703 
Q 3103 4656 3366 4563 
z
" transform="scale(0.015625)"/>
       </defs>
       <use xlink:href="#DejaVuSans-30"/>
       <use xlink:href="#DejaVuSans-2e" x="63.623047"/>
       <use xlink:href="#DejaVuSans-36" x="95.410156"/>
      </g>
     </g>
    </g>
    <g id="ytick_5">
     <g id="line2d_8">
      <g>
       <use xlink:href="#md3133f829d" x="48.8975" y="43.673684" style="stroke: #000000; stroke-width: 0.8"/>
      </g>
     </g>
     <g id="text_8">
      <!-- 0.8 -->
      <g transform="translate(22.81375 48.232747) scale(0.12 -0.12)">
       <defs>
        <path id="DejaVuSans-38" d="M 2034 2216 
Q 1584 2216 1326 1975 
Q 1069 1734 1069 1313 
Q 1069 891 1326 650 
Q 1584 409 2034 409 
Q 2484 409 2743 651 
Q 3003 894 3003 1313 
Q 3003 1734 2745 1975 
Q 2488 2216 2034 2216 
z
M 1403 2484 
Q 997 2584 770 2862 
Q 544 3141 544 3541 
Q 544 4100 942 4425 
Q 1341 4750 2034 4750 
Q 2731 4750 3128 4425 
Q 3525 4100 3525 3541 
Q 3525 3141 3298 2862 
Q 3072 2584 2669 2484 
Q 3125 2378 3379 2068 
Q 3634 1759 3634 1313 
Q 3634 634 3220 271 
Q 2806 -91 2034 -91 
Q 1263 -91 848 271 
Q 434 634 434 1313 
Q 434 1759 690 2068 
Q 947 2378 1403 2484 
z
M 1172 3481 
Q 1172 3119 1398 2916 
Q 1625 2713 2034 2713 
Q 2441 2713 2670 2916 
Q 2900 3119 2900 3481 
Q 2900 3844 2670 4047 
Q 2441 4250 2034 4250 
Q 1625 4250 1398 4047 
Q 1172 3844 1172 3481 
z
" transform="scale(0.015625)"/>
       </defs>
       <use xlink:href="#DejaVuSans-30"/>
       <use xlink:href="#DejaVuSans-2e" x="63.623047"/>
       <use xlink:href="#DejaVuSans-38" x="95.410156"/>
      </g>
     </g>
    </g>
    <g id="ytick_6">
     <g id="line2d_9">
      <g>
       <use xlink:href="#md3133f829d" x="48.8975" y="14.494737" style="stroke: #000000; stroke-width: 0.8"/>
      </g>
     </g>
     <g id="text_9">
      <!-- 1.0 -->
      <g transform="translate(22.81375 19.053799) scale(0.12 -0.12)">
       <defs>
        <path id="DejaVuSans-31" d="M 794 531 
L 1825 531 
L 1825 4091 
L 703 3866 
L 703 4441 
L 1819 4666 
L 2450 4666 
L 2450 531 
L 3481 531 
L 3481 0 
L 794 0 
L 794 531 
z
" transform="scale(0.015625)"/>
       </defs>
       <use xlink:href="#DejaVuSans-31"/>
       <use xlink:href="#DejaVuSans-2e" x="63.623047"/>
       <use xlink:href="#DejaVuSans-30" x="95.410156"/>
      </g>
     </g>
    </g>
    <g id="text_10">
     <!-- Score -->
     <g transform="translate(16.318125 107.162813) rotate(-90) scale(0.12 -0.12)">
      <defs>
       <path id="DejaVuSans-53" d="M 3425 4513 
L 3425 3897 
Q 3066 4069 2747 4153 
Q 2428 4238 2131 4238 
Q 1616 4238 1336 4038 
Q 1056 3838 1056 3469 
Q 1056 3159 1242 3001 
Q 1428 2844 1947 2747 
L 2328 2669 
Q 3034 2534 3370 2195 
Q 3706 1856 3706 1288 
Q 3706 609 3251 259 
Q 2797 -91 1919 -91 
Q 1588 -91 1214 -16 
Q 841 59 441 206 
L 441 856 
Q 825 641 1194 531 
Q 1563 422 1919 422 
Q 2459 422 2753 634 
Q 3047 847 3047 1241 
Q 3047 1584 2836 1778 
Q 2625 1972 2144 2069 
L 1759 2144 
Q 1053 2284 737 2584 
Q 422 2884 422 3419 
Q 422 4038 858 4394 
Q 1294 4750 2059 4750 
Q 2388 4750 2728 4690 
Q 3069 4631 3425 4513 
z
" transform="scale(0.015625)"/>
       <path id="DejaVuSans-63" d="M 3122 3366 
L 3122 2828 
Q 2878 2963 2633 3030 
Q 2388 3097 2138 3097 
Q 1578 3097 1268 2742 
Q 959 2388 959 1747 
Q 959 1106 1268 751 
Q 1578 397 2138 397 
Q 2388 397 2633 464 
Q 2878 531 3122 666 
L 3122 134 
Q 2881 22 2623 -34 
Q 2366 -91 2075 -91 
Q 1284 -91 818 406 
Q 353 903 353 1747 
Q 353 2603 823 3093 
Q 1294 3584 2113 3584 
Q 2378 3584 2631 3529 
Q 2884 3475 3122 3366 
z
" transform="scale(0.015625)"/>
       <path id="DejaVuSans-6f" d="M 1959 3097 
Q 1497 3097 1228 2736 
Q 959 2375 959 1747 
Q 959 1119 1226 758 
Q 1494 397 1959 397 
Q 2419 397 2687 759 
Q 2956 1122 2956 1747 
Q 2956 2369 2687 2733 
Q 2419 3097 1959 3097 
z
M 1959 3584 
Q 2709 3584 3137 3096 
Q 3566 2609 3566 1747 
Q 3566 888 3137 398 
Q 2709 -91 1959 -91 
Q 1206 -91 779 398 
Q 353 888 353 1747 
Q 353 2609 779 3096 
Q 1206 3584 1959 3584 
z
" transform="scale(0.015625)"/>
       <path id="DejaVuSans-72" d="M 2631 2963 
Q 2534 3019 2420 3045 
Q 2306 3072 2169 3072 
Q 1681 3072 1420 2755 
Q 1159 2438 1159 1844 
L 1159 0 
L 581 0 
L 581 3500 
L 1159 3500 
L 1159 2956 
Q 1341 3275 1631 3429 
Q 1922 3584 2338 3584 
Q 2397 3584 2469 3576 
Q 2541 3569 2628 3553 
L 2631 2963 
z
" transform="scale(0.015625)"/>
      </defs>
      <use xlink:href="#DejaVuSans-53"/>
      <use xlink:href="#DejaVuSans-63" x="63.476562"/>
      <use xlink:href="#DejaVuSans-6f" x="118.457031"/>
      <use xlink:href="#DejaVuSans-72" x="179.638672"/>
      <use xlink:href="#DejaVuSans-65" x="218.501953"/>
     </g>
    </g>
   </g>
   <g id="line2d_10">
    <path d="M 76.7975 116.621053 
L 76.7975 14.494737 
" clip-path="url(#p343e719359)" style="fill: none; stroke: #7a7a7a; stroke-width: 1.5; stroke-linecap: square"/>
   </g>
   <g id="line2d_11">
    <path d="M 76.7975 72.852632 
L 76.7975 43.673684 
" clip-path="url(#p343e719359)" style="fill: none; stroke: #7a7a7a; stroke-width: 4.5; stroke-linecap: square"/>
   </g>
   <g id="line2d_12">
    <path d="M 76.7975 58.263158 
" clip-path="url(#p343e719359)" style="fill: none; stroke: #7a7a7a; stroke-width: 1.5; stroke-linecap: square"/>
    <defs>
     <path id="mbc639ddf68" d="M 1.875 0 
L -1.875 -0 
" style="stroke: #ffffff; stroke-width: 0.9"/>
    </defs>
    <g clip-path="url(#p343e719359)">
     <use xlink:href="#mbc639ddf68" x="76.7975" y="58.263158" style="fill: #ffffff; stroke: #ffffff; stroke-width: 0.9"/>
    </g>
   </g>
   <g id="line2d_13">
    <path d="M 132.5975 116.621053 
L 132.5975 14.494737 
" clip-path="url(#p343e719359)" style="fill: none; stroke: #7a7a7a; stroke-width: 1.5; stroke-linecap: square"/>
   </g>
   <g id="line2d_14">
    <path d="M 132.5975 72.852632 
L 132.5975 43.673684 
" clip-path="url(#p343e719359)" style="fill: none; stroke: #7a7a7a; stroke-width: 4.5; stroke-linecap: square"/>
   </g>
   <g id="line2d_15">
    <path d="M 132.5975 58.263158 
" clip-path="url(#p343e719359)" style="fill: none; stroke: #7a7a7a; stroke-width: 1.5; stroke-linecap: square"/>
    <g clip-path="url(#p343e719359)">
     <use xlink:href="#mbc639ddf68" x="132.5975" y="58.263158" style="fill: #ffffff; stroke: #ffffff; stroke-width: 0.9"/>
    </g>
   </g>
   <g id="line2d_16">
    <path d="M 188.3975 72.852632 
L 188.3975 14.494737 
" clip-path="url(#p343e719359)" style="fill: none; stroke: #7a7a7a; stroke-width: 1.5; stroke-linecap: square"/>
   </g>
   <g id="line2d_17">
    <path d="M 188.3975 43.673684 
L 188.3975 14.494737 
" clip-path="url(#p343e719359)" style="fill: none; stroke: #7a7a7a; stroke-width: 4.5; stroke-linecap: square"/>
   </g>
   <g id="line2d_18">
    <path d="M 188.3975 29.084211 
" clip-path="url(#p343e719359)" style="fill: none; stroke: #7a7a7a; stroke-width: 1.5; stroke-linecap: square"/>
    <g clip-path="url(#p343e719359)">
     <use xlink:href="#mbc639ddf68" x="188.3975" y="29.084211" style="fill: #ffffff; stroke: #ffffff; stroke-width: 0.9"/>
    </g>
   </g>
   <g id="patch_3">
    <path d="M 48.8975 173.52 
L 48.8975 7.2 
" style="fill: none; stroke: #000000; stroke-width: 0.8; stroke-linejoin: miter; stroke-linecap: square"/>
   </g>
   <g id="patch_4">
    <path d="M 216.2975 173.52 
L 216.2975 7.2 
" style="fill: none; stroke: #000000; stroke-width: 0.8; stroke-linejoin: miter; stroke-linecap: square"/>
   </g>
   <g id="patch_5">
    <path d="M 48.8975 173.52 
L 216.2975 173.52 
" style="fill: none; stroke: #000000; stroke-width: 0.8; stroke-linejoin: miter; stroke-linecap: square"/>
   </g>
   <g id="patch_6">
    <path d="M 48.8975 7.2 
L 216.2975 7.2 
" style="fill: none; stroke: #000000; stroke-width: 0.8; stroke-linejoin: miter; stroke-linecap: square"/>
   </g>
  </g>
 </g>
 <defs>
  <clipPath id="p343e719359">
   <rect x="48.8975" y="7.2" width="167.4" height="166.32"/>
  </clipPath>
 </defs>
</svg>
